<svg width="44" height="44" viewBox="0 0 44 44" fill="none" xmlns="http://www.w3.org/2000/svg">
<rect width="44" height="44" rx="22" fill="#DDE5ED"/>
<path d="M21.2204 37.6909L7.80901 24.2795C7.54891 24.0194 7.45703 23.713 7.53336 23.3603C7.6097 23.0076 7.81581 22.7608 8.1517 22.62L30.3735 13.7609C30.7896 13.6049 31.1601 13.6895 31.4853 14.0146C31.8104 14.3397 31.895 14.7103 31.739 15.1264L27.3094 26.2373L22.8799 37.3482C22.739 37.6841 22.4923 37.8902 22.1396 37.9665C21.7869 38.0429 21.4805 37.951 21.2204 37.6909ZM21.4801 35.0903L28.9111 16.5888L10.3364 23.9467L14.433 28.0432L21.7129 23.787L17.4079 31.0181L21.4801 35.0903ZM15.9448 29.5551L10.3364 23.9467L21.4801 35.0903L15.9448 29.5551Z" fill="#3060DB"/>
</svg>
