<svg width="17" height="16" viewBox="0 0 17 16" fill="none" xmlns="http://www.w3.org/2000/svg">
<path fill-rule="evenodd" clip-rule="evenodd" d="M0.25 0.662534V13.0221C0.25 13.2618 0.351124 13.4453 0.553371 13.5726C0.755618 13.7 0.969101 13.7187 1.19382 13.6288L7.79598 10.8543C7.76568 11.0652 7.75 11.2808 7.75 11.5C7.75 13.9853 9.76472 16 12.25 16C14.7353 16 16.75 13.9853 16.75 11.5C16.75 10.0078 16.0237 8.6853 14.9054 7.8666L15.8455 7.47152C16.1152 7.35167 16.25 7.14194 16.25 6.84231C16.25 6.54268 16.1152 6.33295 15.8455 6.2131L1.19382 0.0557926C0.969101 -0.0340951 0.755618 -0.0153685 0.553371 0.111972C0.351124 0.239313 0.25 0.422834 0.25 0.662534ZM13.2029 7.10108L13.823 6.84231L1.59831 1.67377V5.44905L7.03652 6.84231L1.59831 8.19062V11.9434L8.45362 9.08285C9.25265 7.83051 10.6543 7 12.25 7C12.5769 7 12.8957 7.03487 13.2029 7.10108Z" fill="white"/>
<path d="M11.336 12.9944C11.3104 12.9942 11.2871 12.9895 11.2658 12.9803C11.2446 12.9712 11.2234 12.9553 11.2023 12.9327L10.0558 11.7058C10.0178 11.6651 9.99904 11.6156 9.99952 11.5573C10 11.499 10.0196 11.4499 10.0582 11.4098C10.0969 11.3698 10.1418 11.35 10.1929 11.3504C10.244 11.3508 10.2886 11.3714 10.3266 11.412L11.3401 12.4966L13.6796 10.0741C13.7182 10.034 13.7642 10.0142 13.8174 10.0147C13.8707 10.0151 13.9163 10.0357 13.9543 10.0763C13.9923 10.117 14.0111 10.1654 14.0106 10.2214C14.0102 10.2775 13.9906 10.3255 13.9519 10.3656L11.4707 12.9349C11.4492 12.9572 11.4278 12.9727 11.4064 12.9815C11.385 12.9903 11.3616 12.9946 11.336 12.9944Z" fill="#2059EE"/>
</svg>
