<svg width="44" height="44" viewBox="0 0 44 44" fill="none" xmlns="http://www.w3.org/2000/svg">
<rect width="44" height="44" rx="22" fill="#DDE5ED"/>
<path d="M11 31.9833L11 13.0167C11 12.6489 11.1517 12.3672 11.4551 12.1718C11.7584 11.9764 12.0787 11.9477 12.4157 12.0856L34.3933 21.5344C34.7978 21.7183 35 22.0402 35 22.5C35 22.9598 34.7978 23.2817 34.3933 23.4656L23.4045 28.19L12.4157 32.9144C12.0787 33.0523 11.7584 33.0236 11.4551 32.8282C11.1517 32.6328 11 32.3511 11 31.9833ZM13.0225 30.328L31.3596 22.5L13.0225 14.5685V20.3619L21.1798 22.5L13.0225 24.5691V30.328ZM13.0225 22.5V14.5685V30.328V22.5Z" fill="#3060DB"/>
</svg>
